<svg width="28" height="28" viewBox="0 0 28 28" fill="none" xmlns="http://www.w3.org/2000/svg">
<circle cx="13.9997" cy="14.0007" r="11.6667" fill="#F69000"/>
<path d="M13.9997 2.33398C7.57134 2.33398 2.33301 7.57232 2.33301 14.0007C2.33301 20.429 7.57134 25.6673 13.9997 25.6673C20.428 25.6673 25.6663 20.429 25.6663 14.0007C25.6663 7.57232 20.428 2.33398 13.9997 2.33398ZM17.9197 16.684C18.258 17.0223 18.258 17.5823 17.9197 17.9207C17.7447 18.0956 17.523 18.1773 17.3013 18.1773C17.0797 18.1773 16.858 18.0956 16.683 17.9207L13.9997 15.2373L11.3163 17.9207C11.1413 18.0956 10.9197 18.1773 10.698 18.1773C10.4763 18.1773 10.2547 18.0956 10.0797 17.9207C9.74134 17.5823 9.74134 17.0223 10.0797 16.684L12.763 14.0007L10.0797 11.3173C9.74134 10.979 9.74134 10.419 10.0797 10.0807C10.418 9.74232 10.978 9.74232 11.3163 10.0807L13.9997 12.764L16.683 10.0807C17.0213 9.74232 17.5813 9.74232 17.9197 10.0807C18.258 10.419 18.258 10.979 17.9197 11.3173L15.2363 14.0007L17.9197 16.684Z" fill="#FFD294"/>
</svg>
