<svg width="26" height="35" viewBox="0 0 26 35" fill="none" xmlns="http://www.w3.org/2000/svg">
<path d="M20.0312 7.5625C20.0312 3.68547 16.877 0.53125 13 0.53125C9.12297 0.53125 5.96875 3.68547 5.96875 7.5625C5.96875 11.4395 9.12297 14.5938 13 14.5938C16.877 14.5938 20.0312 11.4395 20.0312 7.5625ZM13 14.5938C6.02134 14.5938 0.34375 20.2713 0.34375 27.25V28.5679C0.34375 28.9677 0.513812 29.3485 0.811562 29.6152C4.237 32.6846 8.56563 34.375 13 34.375C17.4345 34.375 21.7631 32.6846 25.1884 29.6152C25.4862 29.3485 25.6562 28.9676 25.6562 28.5679V27.25C25.6562 20.2713 19.9787 14.5938 13 14.5938Z" fill="white"/>
</svg>
