<svg width="24" height="24" viewBox="0 0 24 24" fill="none" xmlns="http://www.w3.org/2000/svg">
<path d="M16.632 12.432C16.102 12.353 15.624 12.209 15.178 12.008C17.282 10.132 19.602 8.472 19.632 8.452L19.732 8.382L19.792 8.272C19.969 7.905 20.073 7.475 20.073 7.02C20.073 6.119 19.666 5.313 19.027 4.776C18.504 4.294 17.808 4 17.044 4C16.506 4 16.001 4.146 15.568 4.4L15.442 4.533C13.864 6.714 12.26 8.632 10.534 10.432C8.698 12.07 6.664 13.627 4.516 15.024L4.122 15.272V15.502C4.045 15.816 4 16.177 4 16.548C4 17.518 4.304 18.418 4.822 19.157C5.329 19.687 6.059 20.027 6.867 20.027C6.922 20.027 6.976 20.025 7.029 20.022C7.055 20.024 7.094 20.025 7.133 20.025C7.834 20.025 8.45 19.665 8.807 19.12C9.052 18.812 10.872 16.512 12.812 14.412C13.08 14.876 13.288 15.415 13.406 15.987C13.438 16.236 13.452 16.483 13.452 16.734C13.452 17.557 13.294 18.344 13.007 19.065L14.692 17.022L16.022 18.022C15.981 16.848 15.779 15.736 15.438 14.686C15.211 14.27 14.896 13.841 14.523 13.472C14.929 13.818 15.394 14.115 15.895 14.346C16.835 14.684 17.884 14.918 18.971 15.018L18.022 13.752L20.022 12.022C19.192 12.295 18.237 12.453 17.245 12.453C17.029 12.453 16.815 12.446 16.603 12.431L16.632 12.432ZM16.182 5.202C16.428 5.079 16.718 5.008 17.024 5.008C17.53 5.008 17.99 5.204 18.333 5.524C18.774 5.88 19.054 6.421 19.054 7.028C19.054 7.27 19.009 7.502 18.928 7.716C18.442 8.023 16.582 9.433 14.782 11.023C14.727 10.502 14.48 10.048 14.114 9.725C13.834 9.486 13.471 9.341 13.075 9.341C13.007 9.341 12.94 9.345 12.874 9.353C14.442 7.582 15.852 5.662 16.182 5.202ZM6.722 15.832C6.795 15.781 6.886 15.75 6.984 15.75C6.998 15.75 7.011 15.751 7.024 15.752H7.092C7.271 15.804 7.426 15.894 7.553 16.013L6.682 16.732C6.601 16.567 6.554 16.374 6.554 16.169C6.554 16.117 6.557 16.066 6.563 16.016C6.59 15.939 6.647 15.872 6.721 15.833L6.722 15.832ZM8.022 18.522C7.847 18.828 7.523 19.03 7.151 19.03C7.105 19.03 7.061 19.027 7.017 19.021C6.971 19.027 6.911 19.029 6.85 19.029C6.335 19.029 5.869 18.82 5.532 18.481C5.167 17.941 4.949 17.275 4.949 16.559C4.949 16.308 4.976 16.064 5.026 15.829L5.732 15.372C5.638 15.512 5.568 15.676 5.533 15.853C5.526 15.929 5.523 16.007 5.523 16.087C5.523 16.729 5.725 17.324 6.068 17.811L6.422 18.251L8.122 16.851C8.188 17.06 8.226 17.301 8.226 17.551C8.226 17.902 8.151 18.236 8.016 18.536L8.022 18.522ZM8.882 16.072C8.537 15.472 7.993 15.019 7.342 14.798C7.271 14.786 7.212 14.782 7.152 14.782C7.092 14.782 7.033 14.786 6.975 14.792C6.929 14.785 6.869 14.781 6.807 14.781C6.745 14.781 6.685 14.785 6.625 14.792C8.114 13.774 9.391 12.789 10.613 11.74C11.011 11.811 11.425 11.99 11.744 12.273C12.041 12.586 12.224 13.012 12.224 13.482C12.224 13.514 12.223 13.545 12.222 13.576C11.082 14.802 9.972 16.112 9.222 17.082C9.168 16.703 9.045 16.363 8.865 16.059L8.882 16.072Z" fill="#1C2E45" fill-opacity="0.6"/>
</svg>
