<svg width="24" height="24" viewBox="0 0 24 24" fill="none" xmlns="http://www.w3.org/2000/svg">
<path d="M13.5785 16.2C13.2785 16.2 13.0785 16.1 12.7785 16L11.5785 15.5L10.3785 16C10.1785 16.1 9.87846 16.2 9.57846 16.2C9.37846 16.2 9.27846 16.2 9.07846 16.1L8.57846 20L11.5785 18L14.5785 20L13.9785 16.1C13.8785 16.2 13.6785 16.2 13.5785 16.2Z" fill="#1C2E45" fill-opacity="0.6"/>
<path d="M16.4785 9.9C16.3785 9.7 16.3785 9.4 16.4785 9.2L17.0785 8C17.2785 7.6 17.0785 7.1 16.5785 6.9L15.2785 6.4C15.0785 6.3 14.8785 6.1 14.7785 5.9L14.2785 4.6C14.1785 4.2 13.8785 4 13.5785 4C13.4785 4 13.2785 4 13.1785 4.1L11.8785 4.7C11.7785 4.7 11.6785 4.7 11.5785 4.7C11.4785 4.7 11.3785 4.7 11.2785 4.6L9.97846 4.1C9.87846 4 9.67846 4 9.57846 4C9.27846 4 8.97846 4.2 8.77846 4.5L8.27846 5.9C8.27846 6.1 8.07846 6.3 7.87846 6.4L6.47846 6.9C6.07846 7 5.87846 7.5 6.07846 8L6.67846 9.3C6.77846 9.5 6.77846 9.8 6.67846 10L6.07846 11.2C5.87846 11.6 6.07846 12.1 6.57846 12.3L7.87846 12.8C8.07846 12.9 8.27846 13.1 8.37846 13.3L8.87846 14.6C8.97846 15 9.27846 15.2 9.57846 15.2C9.67846 15.2 9.77846 15.2 9.87846 15.1L11.1785 14.5C11.2785 14.5 11.3785 14.4 11.4785 14.4C11.5785 14.4 11.6785 14.4 11.7785 14.5L13.0785 15.1C13.1785 15.2 13.2785 15.2 13.3785 15.2C13.6785 15.2 13.9785 15 14.1785 14.7L14.6785 13.4C14.7785 13.2 14.9785 13 15.1785 12.9L16.4785 12.4C16.8785 12.2 17.1785 11.7 16.9785 11.3L16.4785 9.9ZM11.5785 13.6C9.37846 13.6 7.57846 11.8 7.57846 9.6C7.57846 7.4 9.37846 5.6 11.5785 5.6C13.7785 5.6 15.5785 7.4 15.5785 9.6C15.5785 11.8 13.7785 13.6 11.5785 13.6Z" fill="#1C2E45" fill-opacity="0.6"/>
<path d="M14.5785 9.59998C14.5785 11.257 13.2355 12.6 11.5785 12.6C9.92146 12.6 8.57846 11.257 8.57846 9.59998C8.57846 7.94298 9.92146 6.59998 11.5785 6.59998C13.2355 6.59998 14.5785 7.94298 14.5785 9.59998Z" fill="#1C2E45" fill-opacity="0.6"/>
</svg>
