<svg width="25" height="24" viewBox="0 0 25 24" fill="none" xmlns="http://www.w3.org/2000/svg">
<path d="M3.66992 7.43945L12.4999 12.5494L21.2699 7.46942" stroke="#70809E" stroke-width="1.5" stroke-linecap="round" stroke-linejoin="round"/>
<path d="M12.5 21.6091V12.5391" stroke="#70809E" stroke-width="1.5" stroke-linecap="round" stroke-linejoin="round"/>
<path d="M22.1096 12.83V9.17C22.1096 7.79 21.1196 6.11002 19.9096 5.44002L14.5696 2.48C13.4296 1.84 11.5696 1.84 10.4296 2.48L5.08963 5.44002C3.87963 6.11002 2.88965 7.79 2.88965 9.17V14.83C2.88965 16.21 3.87963 17.89 5.08963 18.56L10.4296 21.52C10.9996 21.84 11.7496 22 12.4996 22C13.2496 22 13.9996 21.84 14.5696 21.52" stroke="#70809E" stroke-width="1.5" stroke-linecap="round" stroke-linejoin="round"/>
<path d="M19.7 21.4C21.4673 21.4 22.9 19.9673 22.9 18.2C22.9 16.4327 21.4673 15 19.7 15C17.9327 15 16.5 16.4327 16.5 18.2C16.5 19.9673 17.9327 21.4 19.7 21.4Z" stroke="#70809E" stroke-width="1.5" stroke-linecap="round" stroke-linejoin="round"/>
<path d="M23.5 22L22.5 21" stroke="#70809E" stroke-width="1.5" stroke-linecap="round" stroke-linejoin="round"/>
</svg>
