<svg width="25" height="24" viewBox="0 0 25 24" fill="none" xmlns="http://www.w3.org/2000/svg">
<path d="M11.9396 2C9.37596 2.00731 6.91306 2.99891 5.05957 4.77V3C5.05957 2.73478 4.95421 2.48043 4.76668 2.29289C4.57914 2.10536 4.32479 2 4.05957 2C3.79435 2 3.54 2.10536 3.35246 2.29289C3.16493 2.48043 3.05957 2.73478 3.05957 3V7.5C3.05957 7.76522 3.16493 8.01957 3.35246 8.20711C3.54 8.39464 3.79435 8.5 4.05957 8.5H8.55957C8.82479 8.5 9.07914 8.39464 9.26668 8.20711C9.45421 8.01957 9.55957 7.76522 9.55957 7.5C9.55957 7.23478 9.45421 6.98043 9.26668 6.79289C9.07914 6.60536 8.82479 6.5 8.55957 6.5H6.15957C7.07128 5.53701 8.20808 4.81576 9.4677 4.40114C10.7273 3.98651 12.0703 3.89152 13.3757 4.1247C14.6812 4.35788 15.9082 4.91193 16.9463 5.73699C17.9845 6.56205 18.8013 7.63226 19.3233 8.85133C19.8452 10.0704 20.0559 11.4001 19.9365 12.7208C19.817 14.0415 19.3711 15.3118 18.6388 16.4174C17.9066 17.5231 16.911 18.4293 15.7416 19.0547C14.5722 19.68 13.2657 20.0049 11.9396 20C11.6744 20 11.42 20.1054 11.2325 20.2929C11.0449 20.4804 10.9396 20.7348 10.9396 21C10.9396 21.2652 11.0449 21.5196 11.2325 21.7071C11.42 21.8946 11.6744 22 11.9396 22C14.5917 22 17.1353 20.9464 19.0106 19.0711C20.886 17.1957 21.9396 14.6522 21.9396 12C21.9396 9.34784 20.886 6.8043 19.0106 4.92893C17.1353 3.05357 14.5917 2 11.9396 2ZM11.9396 8C11.6744 8 11.42 8.10536 11.2325 8.29289C11.0449 8.48043 10.9396 8.73478 10.9396 9V12C10.9396 12.2652 11.0449 12.5196 11.2325 12.7071C11.42 12.8946 11.6744 13 11.9396 13H13.9396C14.2048 13 14.4591 12.8946 14.6467 12.7071C14.8342 12.5196 14.9396 12.2652 14.9396 12C14.9396 11.7348 14.8342 11.4804 14.6467 11.2929C14.4591 11.1054 14.2048 11 13.9396 11H12.9396V9C12.9396 8.73478 12.8342 8.48043 12.6467 8.29289C12.4591 8.10536 12.2048 8 11.9396 8Z" fill="black"/>
</svg>
