<svg width="25" height="24" viewBox="0 0 25 24" fill="none" xmlns="http://www.w3.org/2000/svg">
<path d="M9.59668 3.31445C10.8498 2.34373 12.8348 2.23557 14.2236 3.02832L14.4932 3.19922L20.2539 7.22949C20.723 7.55795 21.1668 8.09662 21.4941 8.72363C21.8216 9.35081 22.0097 10.0239 22.0098 10.5996V17.3799C22.0097 19.6535 20.1642 21.4998 17.8906 21.5H7.11035C4.83804 21.5 2.99046 19.6452 2.99023 17.3701V10.4697L2.99805 10.2646C3.03474 9.77601 3.19807 9.22035 3.45898 8.69043C3.75703 8.08515 4.16148 7.55623 4.58789 7.22363L9.59668 3.31445ZM12.5 13.75C11.814 13.7501 11.25 14.3139 11.25 15V18C11.2502 18.6859 11.8141 19.2499 12.5 19.25C13.186 19.25 13.7498 18.686 13.75 18V15C13.75 14.3139 13.1861 13.75 12.5 13.75Z" fill="white" stroke="#333333"/>
</svg>
