<svg width="24" height="25" viewBox="0 0 24 25" fill="none" xmlns="http://www.w3.org/2000/svg">
<path d="M6.91992 3H9.23047C9.38394 3.00024 9.49976 3.11606 9.5 3.26953C9.5 3.42323 9.38409 3.5398 9.23047 3.54004H6.91992C4.77288 3.54008 3.04008 5.2848 3.04004 7.41992V9.73047C3.03978 9.87989 2.91747 10 2.76953 10C2.61606 9.99976 2.50024 9.88394 2.5 9.73047V7.41992C2.50004 4.98613 4.48613 3.00004 6.91992 3Z" fill="white" stroke="white"/>
<path d="M14.7695 3H17.0801C19.5139 3.00004 21.5 4.98613 21.5 7.41992V9.73047C21.4998 9.88394 21.3839 9.99976 21.2305 10C21.0825 10 20.9602 9.87989 20.96 9.73047V7.41992C20.9599 5.27288 19.2152 3.54008 17.0801 3.54004H14.7695C14.6201 3.53978 14.5 3.41747 14.5 3.26953C14.5003 3.1218 14.6203 3.00025 14.7695 3Z" fill="white" stroke="white"/>
<path d="M17.0799 22.4997H15.6899C15.2699 22.4997 14.9199 22.1597 14.9199 21.7297C14.9199 21.3097 15.2599 20.9597 15.6899 20.9597H17.0799C18.9499 20.9597 20.4599 19.4397 20.4599 17.5797V16.1997C20.4599 15.7797 20.7999 15.4297 21.2299 15.4297C21.6499 15.4297 21.9999 15.7697 21.9999 16.1997V17.5797C21.9999 20.2897 19.7899 22.4997 17.0799 22.4997Z" fill="white"/>
<path d="M9.23 22.5H6.92C4.21 22.5 2 20.29 2 17.58V15.27C2 14.84 2.34 14.5 2.77 14.5C3.2 14.5 3.54 14.84 3.54 15.27V17.58C3.54 19.45 5.06 20.96 6.92 20.96H9.23C9.65 20.96 10 21.3 10 21.73C10 22.16 9.66 22.5 9.23 22.5Z" fill="white"/>
<path d="M18.4595 11.7305H17.0995H6.89953H5.53953C5.10953 11.7305 4.76953 12.0805 4.76953 12.5005C4.76953 12.9205 5.10953 13.2705 5.53953 13.2705H6.89953H17.0995H18.4595C18.8895 13.2705 19.2295 12.9205 19.2295 12.5005C19.2295 12.0805 18.8895 11.7305 18.4595 11.7305Z" fill="white"/>
<path d="M6.90039 14.4405V14.7705C6.90039 16.4305 8.24039 17.7705 9.90039 17.7705H14.1004C15.7604 17.7705 17.1004 16.4305 17.1004 14.7705V14.4405C17.1004 14.3205 17.0104 14.2305 16.8904 14.2305H7.11039C6.99039 14.2305 6.90039 14.3205 6.90039 14.4405Z" fill="white"/>
<path d="M6.90039 10.5605V10.2305C6.90039 8.57047 8.24039 7.23047 9.90039 7.23047H14.1004C15.7604 7.23047 17.1004 8.57047 17.1004 10.2305V10.5605C17.1004 10.6805 17.0104 10.7705 16.8904 10.7705H7.11039C6.99039 10.7705 6.90039 10.6805 6.90039 10.5605Z" fill="white"/>
</svg>
